<svg width="23" height="27" viewBox="0 0 23 27" fill="none" xmlns="http://www.w3.org/2000/svg">
<path d="M4.43321 5.16667V5.16667C4.88561 2.75084 6.99476 1 9.45258 1H12.9783C14.6784 1 16.2855 1.77574 17.3431 3.10681V3.10681C19.4346 5.73908 18.7377 9.60982 15.8595 11.3474L7.57474 16.349C4.43773 18.2428 4.22323 22.7132 7.1645 24.8987V24.8987C8.12281 25.6107 9.29859 25.968 10.491 25.9096L14.1137 25.7319C16.9112 25.5947 19.2092 23.4744 19.5705 20.697V20.697" stroke="#022254" stroke-width="2" stroke-linecap="round"/>
<path d="M1.31201 12.1112C15.8671 11.9765 20.6933 11.8867 21.287 11.8586" stroke="#022254" stroke-width="2" stroke-linecap="round"/>
<path d="M1.31201 14.6363C15.8671 14.5016 20.6933 14.4118 21.287 14.3838" stroke="#022254" stroke-width="2" stroke-linecap="round"/>
</svg>
