<!-- Generated by IcoMoon.io -->
<svg version="1.1" xmlns="http://www.w3.org/2000/svg" width="1024" height="1024" viewBox="0 0 1024 1024">
<title></title>
<g id="icomoon-ignore">
</g>
<path fill="rgb(160, 160, 160)" d="M512 288c-123.501 0-224 100.499-224 224s100.499 224 224 224c123.501 0 224-100.499 224-224s-100.499-224-224-224zM512 672c-88.375 0-160-71.625-160-160s71.625-160 160-160c88.375 0 160 71.625 160 160s-71.625 160-160 160zM512 224c17.667 0 32-14.334 32-32v-64c0-17.666-14.333-32-32-32s-32 14.334-32 32v64c0 17.666 14.333 32 32 32zM512 800c-17.667 0-32 14.333-32 32v64c0 17.667 14.333 32 32 32s32-14.333 32-32v-64c0-17.667-14.333-32-32-32zM760.876 308.334l45.251-45.25c12.5-12.5 12.5-32.75 0-45.25s-32.751-12.5-45.251 0l-45.251 45.25c-12.5 12.5-12.5 32.75 0 45.25s32.751 12.5 45.251 0zM263.124 715.667l-45.25 45.251c-12.5 12.5-12.5 32.748 0 45.247 12.5 12.503 32.75 12.503 45.25 0l45.25-45.247c12.5-12.541 12.5-32.751 0-45.251-12.498-12.5-32.75-12.544-45.25 0zM224 512c0-17.667-14.334-32-32-32h-64c-17.666 0-32 14.333-32 32s14.334 32 32 32h64c17.666 0 32-14.333 32-32zM896 480h-64c-17.667 0-32 14.333-32 32s14.333 32 32 32h64c17.667 0 32-14.333 32-32s-14.333-32-32-32zM263.082 308.334c12.502 12.5 32.752 12.5 45.25 0 12.502-12.5 12.502-32.75 0-45.25l-45.25-45.25c-12.5-12.5-32.748-12.5-45.25 0-12.5 12.5-12.5 32.75 0 45.25l45.25 45.25zM760.917 715.622c-12.541-12.5-32.751-12.5-45.251 0-12.5 12.503-12.541 32.751 0 45.251l45.251 45.251c12.5 12.5 32.748 12.5 45.247 0 12.503-12.5 12.503-32.748 0-45.251l-45.247-45.251z"></path>
</svg>
