<svg aria-hidden="true" style="position:absolute;width:0;height:0;overflow:hidden" xmlns="http://www.w3.org/2000/svg">
  <defs>
    <symbol id="icon-arrow-benefits" viewBox="0 0 14 32">
      <path fill="none" stroke="#fff" style="stroke:var(--color1, #fff)" stroke-linecap="round" stroke-width="1.056" d="m8.238 26.086 2.799 4.805 2.587-4.805"/>
      <path fill="none" stroke="#023688" style="stroke:var(--color2, #023688)" stroke-linecap="round" stroke-width="1.056" d="M.528.581h5.228a5.281 5.281 0 0 1 5.281 5.281v20.224"/>
    </symbol>
    <symbol id="icon-arrow" viewBox="0 0 44 32">
      <path stroke-linecap="round" stroke-width="6" d="M40.146 4.24 23.43 26.129 4.146 4.193"/>
    </symbol>
    <symbol id="icon-dark-theme" viewBox="0 0 32 32">
      <path fill="#a0a0a0" style="fill:var(--color3, #a0a0a0)" d="M12 2.688c3.667 0 6.802 1.302 9.406 3.906s3.906 5.74 3.906 9.406c0 3.667-1.302 6.802-3.906 9.406s-5.74 3.906-9.406 3.906c-1.417 0-2.75-.188-4-.563 2.75-.833 4.99-2.427 6.719-4.781s2.594-5.01 2.594-7.969c0-2.958-.865-5.615-2.594-7.969S10.75 4.082 8 3.249a13.851 13.851 0 0 1 4-.563z"/>
    </symbol>
    <symbol id="icon-send-message" viewBox="0 0 32 32">
      <path fill="#fff" style="fill:var(--color1, #fff)" d="M32 0 0 17.124l10.227 3.603L26 6.659 14.002 22.057l.01.004-.012-.004v8.385l5.735-6.365L27 26.637 32 0z"/>
    </symbol>
    <symbol id="icon-light-theme" viewBox="0 0 32 32">
      <path fill="#a0a0a0" style="fill:var(--color3, #a0a0a0)" d="M16 9c-3.859 0-7 3.141-7 7s3.141 7 7 7 7-3.141 7-7-3.141-7-7-7zm0 12c-2.762 0-5-2.238-5-5s2.238-5 5-5 5 2.238 5 5-2.238 5-5 5zm0-14a1 1 0 0 0 1-1V4a1 1 0 0 0-2 0v2a1 1 0 0 0 1 1zm0 18a1 1 0 0 0-1 1v2a1 1 0 0 0 2 0v-2a1 1 0 0 0-1-1zm7.777-15.365 1.414-1.414a.999.999 0 1 0-1.414-1.414l-1.414 1.414a.999.999 0 1 0 1.414 1.414zM8.223 22.365l-1.414 1.414a.999.999 0 1 0 1.414 1.414l1.414-1.414a.999.999 0 1 0-1.414-1.414zM7 16a1 1 0 0 0-1-1H4a1 1 0 0 0 0 2h2a1 1 0 0 0 1-1zm21-1h-2a1 1 0 0 0 0 2h2a1 1 0 0 0 0-2zM8.221 9.635a.999.999 0 1 0 1.414-1.414L8.221 6.807a.999.999 0 1 0-1.414 1.414l1.414 1.414zm15.558 12.728a.999.999 0 1 0-1.414 1.414l1.414 1.414a.999.999 0 1 0 1.414-1.414l-1.414-1.414z"/>
    </symbol>
    <symbol id="icon-metro" viewBox="0 0 29 32">
      <path fill="none" stroke="#058d3b" style="stroke:var(--color4, #058d3b)" stroke-width="2.17" d="M26.336 17.965c0 7.187-5.626 12.95-12.49 12.95s-12.49-5.764-12.49-12.95c0-7.187 5.626-12.95 12.49-12.95s12.49 5.764 12.49 12.95z"/>
      <path fill="#058d3b" style="fill:var(--color4, #058d3b)" d="M21.588 10.995v13.954h-2.057v-8.904c0-.364.009-.746.026-1.146.035-.399.069-.79.104-1.172h-.078l-4.556 11.221H13.1L8.674 13.727h-.078c.035.382.052.772.052 1.172.017.399.026.807.026 1.224v8.826H6.617V10.995h3.046l4.4 11.221 4.478-11.221h3.046z"/>
    </symbol>
    <symbol id="icon-modal-email" viewBox="0 0 31 32">
      <path fill="#023688" style="fill:var(--color2, #023688)" d="M25.158 5.982H5.088a2.505 2.505 0 0 0-2.496 2.509l-.013 15.053a2.516 2.516 0 0 0 2.509 2.509h20.07a2.516 2.516 0 0 0 2.509-2.509V8.491a2.516 2.516 0 0 0-2.509-2.509zm-.502 5.332-8.868 5.544a1.269 1.269 0 0 1-1.33 0L5.59 11.314a1.072 1.072 0 0 1-.502-.903c0-.84.916-1.342 1.631-.903l8.404 5.256 8.404-5.256c.715-.439 1.631.063 1.631.903 0 .364-.188.703-.502.903z"/>
    </symbol>
    <symbol id="icon-modal-person" viewBox="0 0 32 32">
      <path fill="#023688" style="fill:var(--color2, #023688)" d="M15.611 16.057c2.862 0 5.179-2.318 5.179-5.179s-2.318-5.179-5.179-5.179c-2.862 0-5.179 2.318-5.179 5.179s2.318 5.179 5.179 5.179zm0 2.59c-3.457 0-10.359 1.735-10.359 5.179v1.295a1.3 1.3 0 0 0 1.295 1.295h18.128a1.3 1.3 0 0 0 1.295-1.295v-1.295c0-3.444-6.902-5.179-10.359-5.179z"/>
    </symbol>
    <symbol id="icon-modal-phone" viewBox="0 0 32 32">
      <path fill="#023688" style="fill:var(--color2, #023688)" d="m24.236 19.444-3.173-.362a2.489 2.489 0 0 0-2.049.712l-2.299 2.299a18.799 18.799 0 0 1-8.234-8.234l2.311-2.311c.537-.537.8-1.287.712-2.049l-.362-3.149a2.5 2.5 0 0 0-2.486-2.211H6.495c-1.412 0-2.586 1.174-2.499 2.586.662 10.67 9.196 19.191 19.853 19.853 1.412.087 2.586-1.087 2.586-2.499v-2.161a2.477 2.477 0 0 0-2.199-2.474z"/>
    </symbol>
    <symbol id="icon-person" viewBox="0 0 32 32">
      <path d="M16 19.2c4.411 0 7.987-4.298 7.987-9.6S20.411 0 16 0 8.013 4.298 8.013 9.6s3.576 9.6 7.987 9.6zM31.655 27.36c-1.438-2.88-4.153-5.28-7.668-6.72-.958-.32-2.077-.32-2.875.16-1.598.96-3.195 1.44-5.112 1.44s-3.514-.48-5.112-1.44c-.799-.32-1.917-.48-2.875 0-3.514 1.44-6.23 3.84-7.668 6.72C-.773 29.6.984 32 3.38 32h25.24c2.396 0 4.153-2.4 3.035-4.64z"/>
    </symbol>
    <symbol id="icon-soc-media-facebook" viewBox="0 0 32 32">
      <path  d="M16 0C7.163 0 0 7.163 0 16s7.163 16 16 16 16-7.163 16-16S24.837 0 16 0zm4.224 9.589s-1.637-.129-2.282.109c-1.066.394-1.091 1.315-1.091 2.193v1.793h3.259l-.476 3.431h-2.783v8.468H13.17v-8.468h-3.061v-3.431h3.061v-2.909c0-3.081 2.371-4.197 3.785-4.331s3.269.268 3.269.268v2.877z"/>
    </symbol>
    <symbol id="icon-soc-media-instagram" viewBox="0 0 32 32">
      <path  d="M19.672 9.22h-7.345a3.108 3.108 0 0 0-3.108 3.108v7.345a3.106 3.106 0 0 0 3.107 3.108h7.345a3.106 3.106 0 0 0 3.107-3.107v-7.345a3.108 3.108 0 0 0-3.108-3.108zM16 20.274a4.266 4.266 0 0 1-3.949-2.638 4.279 4.279 0 0 1 .927-4.659 4.272 4.272 0 0 1 6.577.647 4.271 4.271 0 0 1 .395 4.011A4.275 4.275 0 0 1 16 20.274zm4.453-7.675a1.022 1.022 0 0 1-.94-.627 1.02 1.02 0 0 1 .741-1.387 1.02 1.02 0 0 1 1.044.433 1.016 1.016 0 0 1-.846 1.582z"/>
      <path  d="M16 13.222a2.78 2.78 0 0 0-2.567 1.715 2.782 2.782 0 0 0 .602 3.028 2.776 2.776 0 0 0 3.028.602A2.772 2.772 0 0 0 18.778 16a2.78 2.78 0 0 0-2.779-2.779z"/>
      <path  d="M16 0C7.163 0 0 7.163 0 16s7.163 16 16 16 16-7.163 16-16S24.837 0 16 0zm8.333 19.531a4.802 4.802 0 0 1-4.803 4.803h-7.063a4.802 4.802 0 0 1-4.803-4.803v-7.063a4.802 4.802 0 0 1 4.803-4.803h7.063a4.802 4.802 0 0 1 4.803 4.803v7.063z"/>
    </symbol>
    <symbol id="icon-soc-media-telegram" viewBox="0 0 32 32">
      <path   d="M16 0C7.163 0 0 7.163 0 16s7.163 16 16 16 16-7.163 16-16S24.837 0 16 0zm8.316 10.121-2.842 13.566a.99.99 0 0 1-.623.729.995.995 0 0 1-.951-.13l-4.133-3.054-2.504 2.363a.337.337 0 0 1-.376.061.339.339 0 0 1-.108-.079l-.054-.059.435-4.211 7.843-7.166a.21.21 0 0 0-.104-.361.21.21 0 0 0-.149.029l-10.03 6.348-4.32-1.451a.58.58 0 0 1-.4-.545.587.587 0 0 1 .38-.56l16.901-6.367a.78.78 0 0 1 1.01.477.782.782 0 0 1 .025.41z"/>
    </symbol>
    <symbol id="icon-soc-media-tiktok" viewBox="0 0 32 32">
      <path  d="M16 0C7.163 0 0 7.163 0 16s7.163 16 16 16 16-7.163 16-16S24.837 0 16 0zm8.101 14.524c-1.699 0-3.352-.551-4.625-1.484l-.01 6.344a5.776 5.776 0 0 1-3.75 5.405 5.779 5.779 0 1 1-1.261-11.138v3.115a2.73 2.73 0 0 0-3.501 2.662 2.722 2.722 0 0 0 1.911 2.557 2.725 2.725 0 0 0 3.03-1.007 2.73 2.73 0 0 0 .516-1.596V6.832h3.205a4.498 4.498 0 0 0 1.313 3.172 4.482 4.482 0 0 0 3.172 1.313v3.205z"/>
    </symbol>
    <symbol id="icon-close-line" viewBox="0 0 32 32">
      <path d="M17.253 16l7.369-7.369c0.146-0.17 0.222-0.389 0.213-0.612s-0.101-0.436-0.26-0.594c-0.158-0.158-0.371-0.251-0.594-0.26s-0.443 0.067-0.613 0.213l-7.369 7.369-7.369-7.378c-0.167-0.167-0.394-0.261-0.631-0.261s-0.464 0.094-0.631 0.261c-0.167 0.167-0.261 0.394-0.261 0.631s0.094 0.464 0.261 0.631l7.378 7.369-7.378 7.369c-0.093 0.080-0.169 0.178-0.222 0.288s-0.083 0.23-0.088 0.353c-0.005 0.122 0.016 0.244 0.061 0.359s0.112 0.218 0.199 0.304 0.19 0.154 0.304 0.199c0.114 0.045 0.236 0.065 0.359 0.061s0.243-0.035 0.353-0.088 0.208-0.129 0.288-0.222l7.378-7.369 7.369 7.369c0.17 0.146 0.389 0.222 0.613 0.213s0.436-0.101 0.594-0.26c0.158-0.158 0.251-0.371 0.26-0.594s-0.067-0.442-0.213-0.613l-7.369-7.369z"></path>
    </symbol>
    <symbol id="icon-Check" viewBox="0 0 42 32">
      <path  stroke="#fff" stroke-linejoin="miter" stroke-linecap="butt" stroke-miterlimit="4" stroke-width="0.64" d="M6.262 15.206l-0.221-0.211-0.221 0.208-3.085 2.925 0.243 0.234 11.408 10.88 0.221-0.211 24.256-23.139-0.243-0.23-3.043-2.902-0.221 0.211-20.97 19.987-8.125-7.75z"></path>
    </symbol>
    <symbol id="icon-sign-out" viewBox="0 0 25 28">
      <path d="M10 22.5c0 0.438 0.203 1.5-0.5 1.5h-5c-2.484 0-4.5-2.016-4.5-4.5v-11c0-2.484 2.016-4.5 4.5-4.5h5c0.266 0 0.5 0.234 0.5 0.5 0 0.438 0.203 1.5-0.5 1.5h-5c-1.375 0-2.5 1.125-2.5 2.5v11c0 1.375 1.125 2.5 2.5 2.5h4.5c0.391 0 1-0.078 1 0.5zM24.5 14c0 0.266-0.109 0.516-0.297 0.703l-8.5 8.5c-0.187 0.187-0.438 0.297-0.703 0.297-0.547 0-1-0.453-1-1v-4.5h-7c-0.547 0-1-0.453-1-1v-6c0-0.547 0.453-1 1-1h7v-4.5c0-0.547 0.453-1 1-1 0.266 0 0.516 0.109 0.703 0.297l8.5 8.5c0.187 0.187 0.297 0.438 0.297 0.703z"></path>
    </symbol>
    <symbol id="icon-camera" viewBox="0 0 32 32">
      <path d="M9.5 19c0 3.59 2.91 6.5 6.5 6.5s6.5-2.91 6.5-6.5-2.91-6.5-6.5-6.5-6.5 2.91-6.5 6.5zM30 8h-7c-0.5-2-1-4-3-4h-8c-2 0-2.5 2-3 4h-7c-1.1 0-2 0.9-2 2v18c0 1.1 0.9 2 2 2h28c1.1 0 2-0.9 2-2v-18c0-1.1-0.9-2-2-2zM16 27.875c-4.902 0-8.875-3.973-8.875-8.875s3.973-8.875 8.875-8.875c4.902 0 8.875 3.973 8.875 8.875s-3.973 8.875-8.875 8.875zM30 14h-4v-2h4v2z"></path>
    </symbol>
    <symbol id="icon-heart" viewBox="0 0 24 24">
      <path d="M20.133 5.317c0.88 0.881 1.319 2.031 1.319 3.184s-0.44 2.303-1.319 3.182l-8.133 8.133-8.133-8.133c-0.879-0.879-1.318-2.029-1.318-3.183s0.439-2.304 1.318-3.183 2.029-1.318 3.183-1.318 2.304 0.439 3.183 1.318l1.060 1.060c0.391 0.391 1.024 0.391 1.414 0l1.062-1.062c0.879-0.879 2.029-1.318 3.182-1.317s2.303 0.44 3.182 1.319zM21.547 3.903c-1.269-1.269-2.934-1.904-4.596-1.905s-3.327 0.634-4.597 1.903l-0.354 0.355-0.353-0.353c-1.269-1.269-2.935-1.904-4.597-1.904s-3.328 0.635-4.597 1.904-1.904 2.935-1.904 4.597 0.635 3.328 1.904 4.597l8.84 8.84c0.391 0.391 1.024 0.391 1.414 0l8.84-8.84c1.269-1.269 1.904-2.934 1.905-4.596s-0.634-3.327-1.905-4.598z"></path>
    </symbol>
    <symbol id="icon-trophy" viewBox="0 0 32 32">
      <path d="M26 6v-4h-20v4h-6v4c0 3.314 2.686 6 6 6 0.627 0 1.232-0.096 1.801-0.275 1.443 2.063 3.644 3.556 6.199 4.075v6.2h-2c-2.209 0-4 1.791-4 4h16c0-2.209-1.791-4-4-4h-2v-6.2c2.555-0.519 4.756-2.012 6.199-4.075 0.568 0.179 1.173 0.275 1.801 0.275 3.314 0 6-2.686 6-6v-4h-6zM6 13.625c-1.999 0-3.625-1.626-3.625-3.625v-2h3.625v2c0 1.256 0.232 2.457 0.655 3.565-0.213 0.039-0.431 0.060-0.655 0.060zM29.625 10c0 1.999-1.626 3.625-3.625 3.625-0.224 0-0.442-0.021-0.655-0.060 0.423-1.107 0.655-2.309 0.655-3.565v-2h3.625v2z"></path>
    </symbol>
    <symbol id="icon-graph" viewBox="0 0 24 24">
      <path d="M22.998 22.002h-1.998v-1.002h-1.002v1.002h-1.995v-1.002h-1.002v1.002h-1.998v-1.002h-1.002v1.002h-1.998v-1.002h-1.002v1.002h-1.998v-1.002h-1.002v1.002h-4.401l5.27-3.167 2.608-7.622 3.874 6.809 7.507-12.508-1.714-1.030-5.747 9.576-4.376-7.691-3.809 11.128-5.215 3.134v-20.631h-1.998v24h24v-3h-1.002zM22.998 0h1.002v1.002h-1.002zM19.998 0h1.002v1.002h-1.002zM17.001 0h1.002v1.002h-1.002zM14.001 0h1.002v1.002h-1.002zM11.001 0h1.002v1.002h-1.002zM8.001 0h1.002v1.002h-1.002zM5.001 0h1.002v1.002h-1.002zM2.001 0h1.002v1.002h-1.002zM22.998 3h1.002v1.002h-1.002zM19.998 3h1.002v1.002h-1.002zM17.001 3h1.002v1.002h-1.002zM14.001 3h1.002v1.002h-1.002zM11.001 3h1.002v1.002h-1.002zM8.001 3h1.002v1.002h-1.002zM5.001 3h1.002v1.002h-1.002zM2.001 3h1.002v1.002h-1.002zM22.998 5.997h1.002v1.002h-1.002zM17.001 5.997h1.002v1.002h-1.002zM14.001 5.997h1.002v1.002h-1.002zM8.001 5.997h1.002v1.002h-1.002zM5.001 5.997h1.002v1.002h-1.002zM2.001 5.997h1.002v1.002h-1.002zM22.998 8.997h1.002v1.002h-1.002zM14.001 8.997h1.002v1.002h-1.002zM8.001 8.997h1.002v1.002h-1.002zM5.001 8.997h1.002v1.002h-1.002zM2.001 8.997h1.002v1.002h-1.002zM22.998 11.999h1.002v1.002h-1.002zM19.998 11.999h1.002v1.002h-1.002zM5.001 11.999h1.002v1.002h-1.002zM2.001 11.999h1.002v1.002h-1.002zM22.998 14.999h1.002v1.002h-1.002zM19.998 14.999h1.002v1.002h-1.002zM11.001 14.999h1.002v1.002h-1.002zM5.001 14.999h1.002v1.002h-1.002zM2.001 14.999h1.002v1.002h-1.002zM22.998 17.996h1.002v1.002h-1.002zM19.998 17.996h1.002v1.002h-1.002zM17.001 17.996h1.002v1.002h-1.002zM11.001 17.996h1.002v1.002h-1.002zM2.001 17.996h1.002v1.002h-1.002z"></path>
    </symbol>
    <symbol id="icon-right_arrow" viewBox="0 0 24 24">
      <path d="M5.859 4.125l2.156-2.109 9.984 9.984-9.984 9.984-2.156-2.109 7.922-7.875z"></path>
    </symbol>
    <symbol id="icon-contact-mail" viewBox="0 0 24 24">
      <path d="M3 7.921l8.427 5.899c0.34 0.235 0.795 0.246 1.147 0l8.426-5.899v10.079c0 0.272-0.11 0.521-0.295 0.705s-0.433 0.295-0.705 0.295h-16c-0.272 0-0.521-0.11-0.705-0.295s-0.295-0.433-0.295-0.705zM1 5.983c0 0.010 0 0.020 0 0.030v11.987c0 0.828 0.34 1.579 0.88 2.12s1.292 0.88 2.12 0.88h16c0.828 0 1.579-0.34 2.12-0.88s0.88-1.292 0.88-2.12v-11.988c0-0.010 0-0.020 0-0.030-0.005-0.821-0.343-1.565-0.88-2.102-0.541-0.54-1.292-0.88-2.12-0.88h-16c-0.828 0-1.579 0.34-2.12 0.88-0.537 0.537-0.875 1.281-0.88 2.103zM20.894 5.554l-8.894 6.225-8.894-6.225c0.048-0.096 0.112-0.183 0.188-0.259 0.185-0.185 0.434-0.295 0.706-0.295h16c0.272 0 0.521 0.11 0.705 0.295 0.076 0.076 0.14 0.164 0.188 0.259z"></path>
    </symbol>
    <symbol id="icon-contact-phone" viewBox="0 0 24 24">
      <path d="M23 16.92c0.016-0.714-0.236-1.404-0.673-1.943-0.46-0.566-1.129-0.967-1.925-1.080-0.8-0.098-1.695-0.314-2.586-0.646-0.433-0.159-0.893-0.218-1.344-0.174-0.663 0.064-1.307 0.349-1.819 0.855l-0.72 0.72c-1.77-1.117-3.36-2.667-4.583-4.589l0.726-0.726c0.322-0.33 0.563-0.726 0.707-1.156 0.212-0.632 0.214-1.336-0.039-2.011-0.289-0.753-0.518-1.644-0.644-2.595-0.104-0.714-0.456-1.345-0.963-1.804-0.539-0.486-1.256-0.779-2.027-0.771h-2.996c-0.088 0-0.182 0.004-0.273 0.012-0.824 0.075-1.542 0.478-2.033 1.066s-0.758 1.367-0.683 2.199c0.3 3.076 1.365 6.243 3.216 9.102 1.502 2.413 3.648 4.623 6.298 6.306 2.568 1.697 5.684 2.862 9.086 3.231 0.092 0.009 0.191 0.013 0.288 0.013 0.828-0.003 1.578-0.343 2.118-0.887s0.873-1.297 0.87-2.121zM21 16.92v3c0.001 0.28-0.109 0.53-0.29 0.712s-0.429 0.295-0.706 0.296c-3.149-0.336-5.961-1.391-8.263-2.912-2.428-1.543-4.359-3.537-5.702-5.694-1.697-2.62-2.655-5.481-2.924-8.238-0.024-0.268 0.064-0.526 0.229-0.724s0.403-0.33 0.678-0.355l3.088-0.005c0.271-0.003 0.507 0.094 0.687 0.256 0.17 0.154 0.288 0.366 0.323 0.608 0.142 1.072 0.408 2.117 0.757 3.025 0.081 0.216 0.080 0.447 0.010 0.658-0.049 0.145-0.131 0.281-0.242 0.395l-1.262 1.261c-0.324 0.324-0.379 0.814-0.162 1.201 1.584 2.785 3.839 4.957 6.381 6.378 0.397 0.222 0.882 0.144 1.195-0.166l1.27-1.27c0.166-0.164 0.377-0.257 0.598-0.279 0.152-0.015 0.31 0.005 0.459 0.060 1.022 0.381 2.070 0.636 3.034 0.754 0.241 0.034 0.462 0.166 0.615 0.355 0.147 0.181 0.231 0.412 0.226 0.682z"></path>
    </symbol>
    <symbol id="icon-contact-address" viewBox="0 0 24 24">
      <path d="M22 10c0-2.761-1.12-5.263-2.929-7.071s-4.31-2.929-7.071-2.929-5.263 1.12-7.071 2.929-2.929 4.31-2.929 7.071c0 0.569 0.053 1.128 0.15 1.676 0.274 1.548 0.899 3.004 1.682 4.32 2.732 4.591 7.613 7.836 7.613 7.836 0.331 0.217 0.765 0.229 1.109 0 0 0 4.882-3.245 7.613-7.836 0.783-1.316 1.408-2.772 1.682-4.32 0.098-0.548 0.151-1.107 0.151-1.676zM20 10c0 0.444-0.041 0.887-0.119 1.328-0.221 1.25-0.737 2.478-1.432 3.646-1.912 3.214-5.036 5.747-6.369 6.74-1.398-0.916-4.588-3.477-6.53-6.74-0.695-1.168-1.211-2.396-1.432-3.646-0.077-0.441-0.118-0.884-0.118-1.328 0-2.209 0.894-4.208 2.343-5.657s3.448-2.343 5.657-2.343 4.208 0.894 5.657 2.343 2.343 3.448 2.343 5.657zM16 10c0-1.104-0.449-2.106-1.172-2.828s-1.724-1.172-2.828-1.172-2.106 0.449-2.828 1.172-1.172 1.724-1.172 2.828 0.449 2.106 1.172 2.828 1.724 1.172 2.828 1.172 2.106-0.449 2.828-1.172 1.172-1.724 1.172-2.828zM14 10c0 0.553-0.223 1.051-0.586 1.414s-0.861 0.586-1.414 0.586-1.051-0.223-1.414-0.586-0.586-0.861-0.586-1.414 0.223-1.051 0.586-1.414 0.861-0.586 1.414-0.586 1.051 0.223 1.414 0.586 0.586 0.861 0.586 1.414z"></path>
    </symbol>
  </defs>
</svg>
